<svg width="85" height="28" viewBox="0 0 85 28" fill="none" xmlns="http://www.w3.org/2000/svg">
<path d="M44.7977 7.39131C44.7977 8.35305 44.0274 9.12747 43.0713 9.12747C42.1153 9.12747 41.3454 8.35305 41.3454 7.39131C41.3454 6.42956 42.089 5.65514 43.0713 5.65514C44.0544 5.68183 44.7977 6.45651 44.7977 7.39131ZM37.681 10.8908V11.3183C37.681 11.3183 36.8581 10.2493 35.1054 10.2493C32.2113 10.2493 29.9539 12.4666 29.9539 15.5384C29.9539 18.5837 32.1848 20.8275 35.1054 20.8275C36.8846 20.8275 37.681 19.7323 37.681 19.7323V20.1862C37.681 20.4 37.8407 20.5598 38.0529 20.5598H40.2034V10.5156H38.0529C37.8407 10.5164 37.681 10.7038 37.681 10.8908ZM37.681 17.3282C37.2831 17.9161 36.4862 18.4236 35.5304 18.4236C33.8311 18.4236 32.5297 17.3551 32.5297 15.5384C32.5297 13.7219 33.8311 12.6534 35.5304 12.6534C36.4599 12.6534 37.3096 13.1877 37.681 13.7486V17.3282ZM41.7969 10.5164H44.3459V20.5606H41.7969V10.5164ZM79.8755 10.2491C78.1228 10.2491 77.2994 11.3181 77.2994 11.3181V5.68183H74.7504V20.5606H76.9015C77.114 20.5606 77.2729 20.3735 77.2729 20.1865V19.7326C77.2729 19.7326 78.0963 20.8277 79.8484 20.8277C82.7431 20.8277 85 18.5845 85 15.5392C85 12.4938 82.7431 10.2491 79.8755 10.2491ZM79.4505 18.3967C78.4677 18.3967 77.6978 17.8897 77.2994 17.3015V13.7219C77.6978 13.1877 78.5475 12.6267 79.4505 12.6267C81.1498 12.6267 82.451 13.6952 82.451 15.5117C82.451 17.3282 81.1501 18.3967 79.4505 18.3967ZM73.423 14.6039V20.5873H70.8735V14.8974C70.8735 13.2416 70.3424 12.5734 68.9094 12.5734C68.1396 12.5734 67.3427 12.9742 66.8373 13.5621V20.5609H64.2888V10.5167H66.3063C66.5187 10.5167 66.6782 10.7038 66.6782 10.8908V11.3183C67.4217 10.5434 68.404 10.2493 69.3863 10.2493C70.5018 10.2493 71.4313 10.5704 72.1749 11.2113C73.0773 11.9593 73.423 12.9208 73.423 14.6039ZM58.1009 10.2491C56.3487 10.2491 55.5253 11.3181 55.5253 11.3181V5.68183H52.9763V20.5606H55.1269C55.3394 20.5606 55.4988 20.3735 55.4988 20.1865V19.7326C55.4988 19.7326 56.3222 20.8277 58.0743 20.8277C60.969 20.8277 63.2259 18.5845 63.2259 15.5392C63.2524 12.4936 60.9955 10.2491 58.1009 10.2491ZM57.6759 18.3967C56.6936 18.3967 55.9238 17.8897 55.5253 17.3015V13.7219C55.9238 13.1877 56.7734 12.6267 57.6759 12.6267C59.3758 12.6267 60.6766 13.6952 60.6766 15.5117C60.6766 17.3282 59.3758 18.3967 57.6759 18.3967ZM50.7722 10.2491C51.542 10.2491 51.9404 10.383 51.9404 10.383V12.7602C51.9404 12.7602 49.8161 12.0389 48.4887 13.5618V20.587H45.9392V10.5164H48.0903C48.3028 10.5164 48.4616 10.7035 48.4616 10.8906V11.3181C48.9402 10.7569 49.9758 10.2491 50.7722 10.2491ZM24.2982 19.6522C24.1656 19.3317 24.0327 18.9846 23.9001 18.6905C23.6873 18.2099 23.4748 17.7554 23.2894 17.3282L23.2629 17.3015C21.4304 13.2944 19.4658 9.23448 17.3943 5.22791L17.3147 5.06726C17.0968 4.65163 16.8845 4.23308 16.6778 3.81171C16.412 3.33057 16.1467 2.82354 15.7217 2.3424C14.8721 1.27392 13.6505 0.686035 12.3496 0.686035C11.0216 0.686035 9.82685 1.27392 8.95092 2.28877C8.55248 2.76938 8.26015 3.27694 7.99487 3.75808C7.78763 4.17918 7.57531 4.59772 7.35796 5.01363L7.27811 5.17427C5.23339 9.18083 3.24199 13.241 1.40975 17.2479L1.38296 17.301C1.19727 17.729 0.984522 18.1829 0.772039 18.6633C0.639403 18.9573 0.506767 19.2778 0.374131 19.625C0.028746 20.6132 -0.0776333 21.5482 0.0555334 22.5103C0.347598 24.5138 1.67502 26.1961 3.50752 26.9446C4.19803 27.2387 4.91506 27.3721 5.65835 27.3721C5.87084 27.3721 6.13611 27.3454 6.34886 27.3184C7.22532 27.2117 8.12804 26.9182 9.0045 26.4106C10.0932 25.796 11.1288 24.9149 12.2971 23.6326C13.4653 24.9149 14.5275 25.796 15.5896 26.4106C16.4664 26.9182 17.3688 27.2117 18.245 27.3184C18.4575 27.3457 18.7233 27.3721 18.9358 27.3721C19.6793 27.3721 20.4226 27.2387 21.0863 26.9446C22.9454 26.1961 24.2463 24.4871 24.5386 22.5103C24.7495 21.5755 24.6434 20.6409 24.2982 19.6522ZM12.3228 21.0412C10.8887 19.2247 9.95921 17.5153 9.64089 16.0732C9.50825 15.4586 9.48146 14.9244 9.56131 14.4435C9.6141 14.016 9.77379 13.6418 9.98627 13.3214C10.4908 12.6006 11.3405 12.1461 12.3231 12.1461C13.3059 12.1461 14.1821 12.5736 14.6601 13.3214C14.8726 13.6418 15.0318 14.0163 15.0853 14.4435C15.1647 14.9246 15.1381 15.4853 15.0055 16.0732C14.6858 17.4886 13.7563 19.1983 12.3228 21.0412ZM22.9172 22.2968C22.7315 23.6858 21.802 24.8882 20.5011 25.4224C19.864 25.6893 19.1732 25.7696 18.4832 25.6893C17.8195 25.609 17.1553 25.3952 16.4653 24.9949C15.5092 24.4602 14.5535 23.6326 13.438 22.4035C15.1904 20.2401 16.2525 18.263 16.651 16.5004C16.8369 15.6721 16.8637 14.9244 16.7836 14.2295C16.6778 13.5618 16.4385 12.9472 16.0668 12.413C15.2432 11.2105 13.8622 10.5164 12.3225 10.5164C10.7829 10.5164 9.40188 11.2378 8.57874 12.413C8.20709 12.9472 7.96781 13.5618 7.8617 14.2295C7.7556 14.9244 7.78186 15.6988 7.99434 16.5004C8.39251 18.263 9.4812 20.2665 11.2071 22.4302C10.1184 23.6591 9.13581 24.4874 8.17977 25.0216C7.48926 25.4224 6.82582 25.6362 6.16211 25.716C5.44534 25.7963 4.75457 25.6893 4.14392 25.4491C2.84302 24.9149 1.91351 23.7124 1.72781 22.3234C1.64823 21.6558 1.70102 20.9881 1.96683 20.2401C2.04614 19.9727 2.17931 19.7059 2.31194 19.3854C2.4979 18.9579 2.70985 18.5034 2.9226 18.0495L2.9494 17.9964C4.78137 14.016 6.74624 9.95578 8.79096 6.00259L8.87054 5.84195C9.08329 5.44166 9.29577 5.01416 9.50799 4.61334C9.72047 4.18584 9.95921 3.78502 10.2515 3.43758C10.8091 2.79713 11.5524 2.44941 12.3758 2.44941C13.1993 2.44941 13.9425 2.79713 14.5002 3.43758C14.7925 3.78583 15.0312 4.18664 15.2437 4.61334C15.4565 5.01416 15.6689 5.44166 15.8809 5.84195L15.9607 6.00259C17.9743 9.97221 19.9131 13.9798 21.776 18.0231V18.0498C21.9888 18.4778 22.1745 18.9581 22.387 19.3862C22.5196 19.7061 22.6525 19.973 22.7321 20.2404C22.944 20.9342 23.0236 21.6024 22.9172 22.2968Z" fill="#666666"/>
</svg>
