<svg width="50" height="28" viewBox="0 0 50 28" fill="none" xmlns="http://www.w3.org/2000/svg">
<path d="M34.0112 20.6855C33.4451 20.3784 32.8108 20.2189 32.1668 20.2216C30.7495 20.2216 29.7661 21.2077 29.7661 22.5389C29.7661 23.8299 30.7071 24.8584 32.1668 24.8584C32.8103 24.8598 33.4441 24.7013 34.0112 24.3972V26.7291C33.3636 26.9275 32.6907 27.0314 32.0134 27.0376C29.5474 27.0376 27.3829 25.3376 27.3829 22.5377C27.3829 19.944 29.3412 18.0413 32.0134 18.0413C32.6913 18.0431 33.365 18.1482 34.0112 18.3531V20.6855ZM11.1276 20.6855C10.5628 20.3778 9.92919 20.2183 9.28599 20.2216C7.8659 20.2216 6.88328 21.2077 6.88328 22.5389C6.88328 23.8299 7.82497 24.8584 9.28599 24.8584C9.92869 24.8604 10.5617 24.7019 11.1276 24.3972V26.7291C10.4794 26.9283 9.80571 27.0322 9.12762 27.0376C6.66382 27.0376 4.50205 25.3376 4.50205 22.5377C4.50205 19.944 6.46041 18.0413 9.12834 18.0413C9.80678 18.0425 10.481 18.1477 11.1276 18.3531V20.6855ZM40.9077 20.2543C40.6077 20.2514 40.3101 20.3087 40.0326 20.4227C39.7551 20.5367 39.5033 20.7052 39.292 20.9182C39.0807 21.1312 38.9143 21.3843 38.8024 21.6627C38.6906 21.9411 38.6357 22.2391 38.641 22.5391C38.6355 22.8392 38.6902 23.1373 38.8019 23.416C38.9136 23.6946 39.08 23.948 39.2913 24.1612C39.5026 24.3744 39.7546 24.543 40.0322 24.6572C40.3098 24.7713 40.6075 24.8287 40.9077 24.8258C41.2079 24.8286 41.5056 24.7712 41.7832 24.657C42.0608 24.5428 42.3128 24.3742 42.5242 24.161C42.7356 23.9479 42.9022 23.6945 43.0141 23.416C43.126 23.1374 43.1809 22.8392 43.1756 22.5391C43.1806 22.2391 43.1255 21.9411 43.0135 21.6627C42.9015 21.3844 42.7349 21.1313 42.5235 20.9184C42.3121 20.7054 42.0603 20.537 41.7827 20.4229C41.5052 20.3089 41.2077 20.2515 40.9077 20.2543ZM45.4986 22.5391C45.4986 25.0244 43.5798 27.0383 40.9084 27.0383C38.2369 27.0383 36.3195 25.0243 36.3195 22.5383C36.3195 20.0578 38.2361 18.0419 40.9077 18.0419C43.5792 18.0419 45.4986 20.0576 45.4986 22.5391ZM24.6476 20.1709C24.615 20.1606 23.692 19.9055 22.9337 19.9055C22.0552 19.9055 21.5774 20.2 21.5774 20.6174C21.5774 21.1466 22.2219 21.3312 22.5823 21.4452L23.1872 21.6376C24.6108 22.0901 25.2586 23.0646 25.2586 24.123C25.2586 26.3055 23.3393 27.0389 21.6615 27.0389C20.8673 27.0312 20.0754 26.9517 19.2956 26.8014V24.8019C19.4886 24.8506 20.4081 25.1255 21.3657 25.1255C22.4566 25.1255 22.958 24.8061 22.958 24.3144C22.958 23.8741 22.5241 23.62 21.9803 23.4492C21.8483 23.4047 21.6483 23.3422 21.5122 23.2978C20.2914 22.9116 19.2733 22.1936 19.2733 20.7561C19.2733 19.1313 20.49 18.0402 22.5108 18.0402C23.2313 18.05 23.9483 18.1427 24.6476 18.3165V20.1709Z" fill="#666666"/>
<path d="M16.3336 26.8848H14.1413V18.1963H16.3336V26.8848Z" fill="#666666"/>
<path d="M1.8571 8.09235C2.0611 8.29557 2.17614 8.57145 2.17699 8.85942L2.17709 11.1399C2.16992 11.4239 2.05209 11.6938 1.84872 11.8921C1.64536 12.0903 1.37257 12.2013 1.08855 12.2012C0.804523 12.2013 0.531726 12.0903 0.328362 11.8921C0.124998 11.6938 0.00716178 11.4239 0 11.1399V8.85867C0.00114237 8.57074 0.116406 8.29507 0.320516 8.092C0.524627 7.88894 0.800933 7.77505 1.08885 7.7754C1.37681 7.77515 1.6531 7.88914 1.8571 8.09235Z" fill="#666666"/>
<path d="M8.07253 5.45024C8.12723 5.58231 8.15539 5.72386 8.15539 5.86682V11.1403C8.15539 11.429 8.0407 11.706 7.83656 11.9101C7.63242 12.1142 7.35555 12.2289 7.06685 12.2289C6.77815 12.2289 6.50127 12.1142 6.29713 11.9101C6.09299 11.706 5.9783 11.429 5.9783 11.1403V5.86682C5.9783 5.72386 6.00646 5.58231 6.06117 5.45024C6.11587 5.31818 6.19605 5.19822 6.29713 5.09714C6.39822 4.99606 6.51822 4.91586 6.65028 4.86118C6.78235 4.8065 6.9239 4.77838 7.06685 4.77838C7.20979 4.77838 7.35134 4.8065 7.4834 4.86118C7.61547 4.91586 7.73547 4.99606 7.83655 5.09714C7.93763 5.19822 8.01782 5.31818 8.07253 5.45024Z" fill="#666666"/>
<path d="M13.8146 1.00374C14.0186 1.20711 14.1337 1.48303 14.1345 1.77106V13.3078C14.1273 13.5917 14.0094 13.8615 13.8061 14.0598C13.6027 14.258 13.33 14.369 13.046 14.369C12.762 14.369 12.4892 14.258 12.2858 14.0598C12.0825 13.8615 11.9646 13.5917 11.9574 13.3078V1.77106C11.9583 1.48293 12.0734 1.20691 12.2776 1.00354C12.4817 0.800172 12.7581 0.686136 13.0463 0.686336C13.3343 0.686236 13.6106 0.800373 13.8146 1.00374Z" fill="#666666"/>
<path d="M20.0304 5.45009C20.085 5.58226 20.113 5.72381 20.1129 5.86682L20.1133 5.86526V11.1394C20.1133 11.4281 19.9986 11.7051 19.7945 11.9092C19.5904 12.1133 19.3135 12.228 19.0248 12.228C18.7361 12.228 18.4592 12.1133 18.2551 11.9092C18.0509 11.7051 17.9362 11.4281 17.9362 11.1394V5.86586C17.9362 5.7229 17.9644 5.5814 18.0191 5.44934C18.0738 5.31728 18.154 5.19726 18.2551 5.09618C18.3562 4.9951 18.4762 4.91496 18.6082 4.86028C18.7403 4.80559 18.8818 4.77742 19.0248 4.77742C19.1678 4.77747 19.3093 4.8057 19.4414 4.86048C19.5735 4.91526 19.6935 4.9955 19.7946 5.09669C19.8956 5.19787 19.9757 5.31793 20.0304 5.45009Z" fill="#666666"/>
<path d="M25.7684 8.09346C25.9713 8.29673 26.0852 8.57225 26.085 8.85942V11.1399C26.085 11.4277 25.9707 11.7037 25.7672 11.9072C25.5638 12.1107 25.2878 12.225 25 12.225C24.7122 12.225 24.4362 12.1107 24.2328 11.9072C24.0293 11.7037 23.9149 11.4277 23.9149 11.1399V8.85867C23.916 8.57084 24.0312 8.29522 24.2352 8.09215C24.4391 7.88909 24.7153 7.7752 25.0031 7.7754C25.2903 7.77581 25.5656 7.89019 25.7684 8.09346Z" fill="#666666"/>
<path d="M31.7389 5.11717C31.9416 5.31482 32.059 5.58381 32.0662 5.86682V11.1403C32.0662 11.2829 32.0382 11.4239 31.9836 11.5556C31.9291 11.6872 31.8492 11.8068 31.7484 11.9076C31.6477 12.0084 31.5281 12.0883 31.3964 12.1428C31.2648 12.1974 31.1237 12.2254 30.9812 12.2254C30.6934 12.2254 30.4175 12.111 30.214 11.9076C30.0105 11.7041 29.8962 11.4281 29.8961 11.1403V5.86682C29.9033 5.58381 30.0208 5.31482 30.2235 5.11717C30.4262 4.91953 30.6981 4.80891 30.9812 4.80891C31.2643 4.80891 31.5362 4.91953 31.7389 5.11717Z" fill="#666666"/>
<path d="M37.7309 1.00384C37.9344 1.20731 38.0487 1.48328 38.0487 1.77106V13.3078C38.0573 13.5036 38.0127 13.6981 37.9197 13.8706C37.8267 14.0432 37.6887 14.1873 37.5204 14.2877C37.3521 14.3882 37.1597 14.4413 36.9636 14.4413C36.7676 14.4413 36.5752 14.3882 36.4069 14.2877C36.2386 14.1872 36.1007 14.0431 36.0077 13.8706C35.9147 13.698 35.8701 13.5036 35.8787 13.3078V1.77106C35.8787 1.48328 35.993 1.20731 36.1965 1.00384C36.3999 0.800373 36.6759 0.686035 36.9637 0.686035C37.2515 0.686035 37.5275 0.800373 37.7309 1.00384Z" fill="#666666"/>
<path d="M43.9454 5.44869C44.0009 5.5811 44.0296 5.72321 44.0299 5.86682V11.1403C44.0298 11.2841 44.0013 11.4264 43.9459 11.559C43.8905 11.6916 43.8094 11.812 43.7073 11.913C43.6051 12.0141 43.484 12.094 43.3508 12.148C43.2176 12.202 43.075 12.2291 42.9313 12.2277C42.7887 12.2276 42.6474 12.1994 42.5157 12.1447C42.384 12.09 42.2643 12.0098 42.1636 11.9088C42.0628 11.8078 41.983 11.688 41.9286 11.5562C41.8742 11.4243 41.8463 11.283 41.8466 11.1403V5.86612C41.8466 5.57839 41.9608 5.30236 42.1642 5.09885C42.3677 4.89533 42.6436 4.78089 42.9313 4.78074C43.0749 4.77943 43.2173 4.8065 43.3504 4.86048C43.4834 4.91446 43.6045 4.9942 43.7066 5.09513C43.8088 5.19606 43.8899 5.31627 43.9454 5.44869Z" fill="#666666"/>
<path d="M49.6819 8.0914C49.8856 8.29512 50 8.57135 50 8.85942L49.9993 11.14C49.9995 11.2828 49.9716 11.4242 49.9171 11.5561C49.8627 11.688 49.7828 11.8079 49.682 11.909C49.5812 12.01 49.4615 12.0902 49.3297 12.145C49.1979 12.1998 49.0567 12.228 48.9139 12.2282C48.7712 12.2281 48.6298 12.1999 48.4979 12.1451C48.3661 12.0904 48.2463 12.0102 48.1454 11.9091C48.0446 11.8081 47.9646 11.6882 47.9101 11.5562C47.8556 11.4243 47.8277 11.2828 47.8279 11.14V8.85942C47.8279 8.57135 47.9423 8.29512 48.1459 8.0914C48.3496 7.88768 48.6259 7.77329 48.9139 7.77324C49.202 7.77329 49.4782 7.88768 49.6819 8.0914Z" fill="#666666"/>
<path d="M48.7449 25.8758H48.3574H48.7449Z" fill="#666666"/>
<path d="M48.3574 25.8758V26.8836V25.8758Z" fill="#666666"/>
<path d="M48.3574 26.8836H48.1977H48.3574Z" fill="#666666"/>
<path d="M48.1977 26.8836V25.8766V26.8836Z" fill="#666666"/>
<path d="M48.1977 25.8766H47.8088H48.1977Z" fill="#666666"/>
<path d="M47.8088 25.8766V25.7397V25.8766Z" fill="#666666"/>
<path d="M47.8088 25.7397L48.7449 25.7396L47.8088 25.7397Z" fill="#666666"/>
<path d="M49.0754 25.7396L49.4177 26.6779L49.0754 25.7396Z" fill="#666666"/>
<path d="M49.4177 26.6779H49.4233H49.4177Z" fill="#666666"/>
<path d="M49.4233 26.6779L49.7545 25.7403L49.4233 26.6779Z" fill="#666666"/>
<path d="M49.7545 25.7403H49.999H49.7545Z" fill="#666666"/>
<path d="M49.999 25.7403V26.8834V25.7403Z" fill="#666666"/>
<path d="M49.999 26.8834H49.8358H49.999Z" fill="#666666"/>
<path d="M49.8358 26.8834V25.9459V26.8834Z" fill="#666666"/>
<path d="M49.8358 25.9459H49.8302H49.8358Z" fill="#666666"/>
<path d="M49.8302 25.9459L49.483 26.8834L49.8302 25.9459Z" fill="#666666"/>
<path d="M49.483 26.8834H49.3326H49.483Z" fill="#666666"/>
<path d="M49.3326 26.8834L48.9932 25.9459L49.3326 26.8834Z" fill="#666666"/>
<path d="M48.9932 25.9459H48.9856H48.9932Z" fill="#666666"/>
<path d="M48.9856 25.9459V26.8834V25.9459Z" fill="#666666"/>
<path d="M48.9856 26.8834H48.8259H48.9856Z" fill="#666666"/>
<path d="M48.8259 26.8834L48.8261 25.7396L48.8259 26.8834Z" fill="#666666"/>
<path d="M49.0754 25.7396L49.4177 26.6779H49.4233L49.7545 25.7403H49.999V26.8834H49.8358V25.9459H49.8302L49.483 26.8834H49.3326L48.9932 25.9459H48.9856V26.8834H48.8259L48.8261 25.7396H49.0754Z" fill="#666666"/>
<path d="M48.7449 25.8758H48.3574V26.8836H48.1977V25.8766H47.8088V25.7397L48.7449 25.7396V25.8758Z" fill="#666666"/>
</svg>
