<svg width="48" height="20" viewBox="0 0 48 20" fill="none" xmlns="http://www.w3.org/2000/svg">
<path fill-rule="evenodd" clip-rule="evenodd" d="M14.4487 6.40527C14.4487 6.40527 15.7657 4.66992 18.8237 4.68604C21.8827 4.70215 24.7187 6.74902 24.6527 10.272C24.6462 10.5972 24.6183 10.9077 24.5706 11.2051C25.3888 9.00244 29.4299 8.70166 30.6368 8.69385C31.3467 8.69385 33.4768 8.68604 33.4768 8.68604C33.4878 7.25586 33.0348 6.29883 30.5548 6.25586C28.4407 6.2168 27.8977 7.27197 27.7698 7.68604H25.1798C25.8398 4.28809 30.7228 4.70215 30.7228 4.70215C35.8093 4.90137 35.9344 7.51709 35.9932 8.74902L35.9998 8.88086V15.686L33.7458 15.6978L33.6448 13.8657C32.6838 15.0259 31.3908 15.6738 29.1208 15.686C26.911 15.6973 24.1041 14.7803 24.426 11.8657C23.7256 14.3579 21.4888 15.686 18.7727 15.686C15.5277 15.686 14.4177 13.9521 14.4177 13.9521L14.3157 15.686H11.9997V10.686H2.44074C2.44074 10.686 2.57774 14.085 6.06974 14.1499C8.78474 14.1982 9.27674 12.3701 9.27674 12.3701L11.7847 12.3618C11.7847 12.3618 11.5187 15.686 6.05875 15.686C-0.293266 15.686 0.0037306 10.3892 0.0037306 10.3892C-0.0272447 9.21289 -0.00426483 4.68604 5.99973 4.68604C11.0243 4.68604 11.8808 8.11621 11.9997 9.78955V0.686035H14.4487V6.40527ZM14.4647 10.229C14.4647 10.229 14.4017 14.1631 18.2657 14.1162C22.1247 14.0688 22.1327 10.311 22.1327 10.311C22.1327 10.311 22.1907 6.16309 18.2577 6.26025C14.3247 6.35791 14.4647 10.229 14.4647 10.229ZM6.14774 6.23682C2.69474 6.23682 2.52274 9.20215 2.52274 9.20215H9.58573C9.58573 9.20215 9.58573 6.23291 6.14774 6.23682ZM26.9447 12.3311C27.0898 14.2021 29.5468 14.1978 29.5468 14.1978C33.9488 14.252 33.4998 10.249 33.5028 10.249L30.7228 10.252C30.7228 10.252 26.7928 10.334 26.9447 12.3311Z" fill="#666666"/>
<path d="M34.4378 4.68604H37.2417L41.3478 12.8701L45.4648 4.68604H47.9998L40.5738 19.686H37.8597L40.0088 15.2212L34.4378 4.68604Z" fill="#666666"/>
</svg>
