<svg width="95" height="21" viewBox="0 0 95 21" fill="none" xmlns="http://www.w3.org/2000/svg">
<path d="M94.1781 9.78207V8.12567H92.1214V5.55058L92.0523 5.57198L90.0826 6.17463V8.12567H87.0332V7.03805C87.0039 6.62627 87.1232 6.21764 87.3693 5.88623C87.4879 5.7561 87.634 5.65401 87.797 5.5874C87.96 5.52078 88.1358 5.4913 88.3116 5.5011C88.6205 5.50522 88.9251 5.57449 89.2054 5.70437L89.2811 5.73824V3.99537L89.2455 3.98244C88.8758 3.86855 88.4896 3.81703 88.103 3.82999C87.5387 3.8211 86.9814 3.95496 86.4827 4.21913C86.0143 4.47119 85.6283 4.8528 85.371 5.31835C85.1036 5.81322 84.968 6.36862 84.9774 6.93107V8.12567H83.5452V9.78207H84.9774V16.7594H87.0332V9.78207H90.0826V14.2146C90.0826 16.0422 90.9438 16.9662 92.643 16.9662C92.9365 16.9645 93.229 16.9321 93.5157 16.8695C93.7359 16.8321 93.9498 16.7643 94.1514 16.668L94.1786 16.6519V14.9804L94.0948 15.0357C93.9672 15.1164 93.8278 15.1766 93.6815 15.214C93.5498 15.2547 93.4133 15.2779 93.2755 15.283C93.1152 15.2971 92.9538 15.2758 92.8026 15.2207C92.6515 15.1657 92.5142 15.0781 92.4005 14.9643C92.184 14.6382 92.0856 14.2478 92.1214 13.858V9.78207H94.1781ZM78.9531 15.2844C78.6251 15.3015 78.2973 15.2443 77.9945 15.117C77.6916 14.9897 77.4214 14.7957 77.204 14.5493C76.7531 13.9549 76.5302 13.2186 76.5755 12.4739C76.5277 11.7119 76.7503 10.9574 77.204 10.3433C77.4168 10.0951 77.6835 9.89886 77.9837 9.76947C78.2839 9.64007 78.6097 9.58096 78.9362 9.59664C79.2528 9.58143 79.5688 9.63763 79.8608 9.76109C80.1528 9.88454 80.4132 10.0721 80.6229 10.3098C81.0733 10.9185 81.2917 11.6678 81.2389 12.4231C81.2909 13.1811 81.0869 13.9346 80.6595 14.5627C80.451 14.8076 80.1881 15.0003 79.8918 15.1255C79.5955 15.2506 79.2741 15.3056 78.9531 15.2844ZM79.0445 7.91439C78.4294 7.88056 77.8138 7.97314 77.2359 8.18642C76.6579 8.3997 76.1297 8.72916 75.684 9.15446C75.2671 9.60975 74.945 10.1435 74.7365 10.7246C74.528 11.3057 74.4374 11.9225 74.4698 12.539C74.4403 13.1296 74.53 13.7201 74.7336 14.2752C74.9373 14.8304 75.2506 15.3388 75.655 15.7703C76.0764 16.1749 76.5758 16.4894 77.1228 16.6947C77.6698 16.8999 78.2528 16.9915 78.8363 16.964C79.4425 16.9938 80.0483 16.8974 80.6153 16.6811C81.1823 16.4647 81.6982 16.133 82.1304 15.707C82.5439 15.2561 82.8641 14.7279 83.0725 14.1527C83.2809 13.5776 83.3734 12.9669 83.3447 12.3558C83.4094 11.1634 83 9.99365 82.2058 9.10186C81.7898 8.69593 81.2939 8.38088 80.7498 8.1767C80.2056 7.97251 79.6249 7.88364 79.0445 7.91572V7.91439ZM71.1548 7.91572C70.2999 7.87956 69.4586 8.13949 68.7731 8.65165C68.4784 8.87543 68.2407 9.16569 68.0794 9.49878C67.9181 9.83187 67.8378 10.1984 67.8451 10.5684C67.8379 10.9349 67.9061 11.299 68.0452 11.6382C68.1834 11.9506 68.3939 12.2256 68.6595 12.4405C69.0423 12.7283 69.4621 12.9634 69.9076 13.1394C70.2637 13.2793 70.6108 13.441 70.9471 13.6235C71.124 13.7158 71.2798 13.8438 71.4048 13.9993C71.4964 14.1459 71.5407 14.317 71.5319 14.4896C71.5319 15.0691 71.0977 15.3517 70.2036 15.3517C69.8205 15.3426 69.4413 15.2732 69.0798 15.1462C68.6685 15.0118 68.2804 14.815 67.9289 14.5627L67.8433 14.5017V16.4812L67.8745 16.4959C68.2241 16.6486 68.5896 16.7615 68.9644 16.8325C69.3469 16.9159 69.7368 16.9607 70.1282 16.9662C71.0263 17.0131 71.9134 16.7519 72.6427 16.2258C72.9423 15.9959 73.1833 15.6983 73.346 15.3575C73.5087 15.0166 73.5885 14.6421 73.5788 14.2645C73.5935 13.7257 73.4148 13.1995 73.0751 12.7811C72.5993 12.287 72.0127 11.9134 71.3638 11.6912C70.9269 11.5449 70.5155 11.331 70.1447 11.0574C70.0602 10.9694 69.9947 10.8649 69.9523 10.7505C69.91 10.6361 69.8917 10.5141 69.8987 10.3923C69.8969 10.2721 69.9243 10.1534 69.9787 10.0462C70.0331 9.93904 70.1127 9.84671 70.2107 9.77717C70.4668 9.59996 70.7747 9.51308 71.0857 9.53022C71.4389 9.5319 71.7899 9.58583 72.1274 9.69025C72.4501 9.78433 72.7568 9.92648 73.0372 10.1119L73.121 10.1694V8.29416L73.0889 8.28034C72.7911 8.16171 72.4815 8.07533 72.1653 8.0227C71.8316 7.95732 71.4926 7.92226 71.1525 7.91795L71.1548 7.91572ZM62.4859 15.2844C62.1578 15.3015 61.8301 15.2443 61.5272 15.117C61.2243 14.9897 60.9541 14.7957 60.7368 14.5493C60.2865 13.9555 60.0638 13.2201 60.1087 12.4762C60.0609 11.7141 60.2834 10.9596 60.7372 10.3455C60.9499 10.0973 61.2166 9.90096 61.5168 9.77156C61.817 9.64216 62.1428 9.58309 62.4694 9.59887C62.786 9.58366 63.102 9.63986 63.394 9.76332C63.6859 9.88677 63.9464 10.0743 64.1561 10.3121C64.6065 10.9207 64.8249 11.6701 64.7721 12.4254C64.8241 13.1833 64.62 13.9368 64.1926 14.5649C63.9842 14.8099 63.7213 15.0026 63.425 15.1278C63.1287 15.2529 62.8072 15.307 62.4863 15.2857L62.4859 15.2844ZM62.5781 7.91662C61.963 7.88273 61.3474 7.97529 60.7694 8.18857C60.1915 8.40186 59.6633 8.73134 59.2176 9.15669C58.8006 9.61194 58.4784 10.1457 58.2699 10.7268C58.0613 11.3079 57.9706 11.9247 58.003 12.5413C57.9735 13.1319 58.0632 13.7224 58.2669 14.2775C58.4707 14.8327 58.7841 15.3411 59.1887 15.7725C59.61 16.1771 60.1094 16.4917 60.6564 16.6969C61.2034 16.9022 61.7864 16.9938 62.37 16.9662C62.9761 16.996 63.5819 16.8996 64.1489 16.6832C64.7159 16.4669 65.2318 16.1352 65.664 15.7092C66.0775 15.2583 66.3977 14.7301 66.6061 14.155C66.8145 13.5798 66.907 12.9691 66.8783 12.358C66.943 11.1655 66.5335 9.99576 65.7389 9.10409C65.323 8.69822 64.8272 8.3832 64.2831 8.17901C63.739 7.97483 63.1584 7.88593 62.5781 7.91795V7.91662ZM54.8823 9.62115V8.12567H52.8515V16.7594H54.8823V12.3424C54.8532 11.693 55.0305 11.0511 55.3887 10.5086C55.5323 10.2923 55.7279 10.1155 55.9575 9.99433C56.1872 9.87316 56.4435 9.81152 56.7032 9.81506C56.9097 9.8182 57.115 9.84816 57.3138 9.90421C57.4812 9.94139 57.6412 10.0062 57.7872 10.0959L57.8728 10.1578V8.11096L57.8398 8.0967C57.585 8.00563 57.315 7.96462 57.0446 7.9759C56.5483 7.97101 56.0666 8.14365 55.6864 8.46266C55.3305 8.77525 55.0614 9.17445 54.905 9.6216L54.8823 9.62115ZM49.2146 7.91751C48.3541 7.90017 47.5037 8.10465 46.7452 8.51124C46.0476 8.89508 45.4805 9.47834 45.1164 10.1864C44.7326 10.9562 44.5407 11.8074 44.557 12.6674C44.5469 13.4429 44.734 14.2083 45.1008 14.8917C45.4489 15.5394 45.9765 16.0729 46.6203 16.4282C47.3021 16.7951 48.0665 16.981 48.8406 16.968C49.694 16.9954 50.5396 16.7975 51.2922 16.3943L51.319 16.3791V14.5181L51.2334 14.5805C50.9295 14.801 50.5947 14.9754 50.2398 15.0981C49.9282 15.2144 49.5993 15.2781 49.2668 15.2866C48.9156 15.3037 48.5648 15.2466 48.2372 15.1189C47.9096 14.9913 47.6126 14.796 47.3656 14.5458C46.8734 13.9789 46.6219 13.2422 46.6645 12.4927C46.6271 11.7222 46.8891 10.967 47.3955 10.3852C47.6384 10.1256 47.934 9.92113 48.2626 9.7855C48.5911 9.64986 48.945 9.58622 49.3002 9.59887C50.0001 9.60985 50.6779 9.84568 51.2334 10.2715L51.3185 10.3335V8.37217L51.2909 8.35657C50.9952 8.2046 50.6785 8.09749 50.3513 8.03875C49.9779 7.95969 49.5975 7.91892 49.2159 7.91706L49.2146 7.91751ZM43.1591 8.12522H41.1283V16.7594H43.1591V8.12522ZM42.1646 4.44736C41.8429 4.44225 41.532 4.56412 41.2994 4.78657C41.1824 4.89394 41.0896 5.025 41.0271 5.17102C40.9646 5.31704 40.9339 5.47469 40.9371 5.63349C40.9335 5.78938 40.9635 5.94421 41.0251 6.08748C41.0866 6.23076 41.1782 6.35914 41.2937 6.46392C41.5293 6.68304 41.8411 6.80168 42.1629 6.79467C42.4855 6.8011 42.7981 6.68278 43.0356 6.46437C43.1526 6.36033 43.2457 6.23219 43.3084 6.08876C43.3711 5.94533 43.402 5.79001 43.3989 5.63349C43.4006 5.47711 43.37 5.32206 43.3092 5.17798C43.2484 5.03389 43.1586 4.90385 43.0455 4.79593C42.9293 4.68137 42.7912 4.59145 42.6395 4.53155C42.4878 4.47166 42.3255 4.44302 42.1624 4.44736H42.1646ZM37.0952 7.48825V16.7598H39.1679V4.71213H36.2995L32.6533 13.6605L29.1149 4.71213H26.1284V16.7589H28.0763V7.48736H28.1432L31.8795 16.7589H33.3504L37.0287 7.48736L37.0952 7.48825Z" fill="#666666"/>
<path d="M9.55372 10.2398H0V0.686035H9.55372V10.2398Z" fill="#666666"/>
<path d="M20.1023 10.2398H10.5486V0.686035H20.1023V10.2398Z" fill="#666666"/>
<path d="M9.55372 20.7919H0V11.2382H9.55372V20.7919Z" fill="#666666"/>
<path d="M20.1023 20.7919H10.5486V11.2382H20.1023V20.7919Z" fill="#666666"/>
</svg>
