<svg width="17" height="15" viewBox="0 0 17 15" fill="none" xmlns="http://www.w3.org/2000/svg">
<path d="M8.40015 0.681559C8.47784 0.457383 8.79488 0.457382 8.87258 0.681558L10.5375 5.48537C10.5724 5.58601 10.6672 5.6535 10.7737 5.6535H16.1254C16.3714 5.6535 16.4695 5.9716 16.2661 6.11012L11.9649 9.03984C11.8715 9.10341 11.8324 9.22164 11.8694 9.32833L13.5188 14.0873C13.5976 14.3148 13.3408 14.5114 13.1418 14.3758L8.7771 11.4029C8.69219 11.345 8.58054 11.345 8.49562 11.4029L4.13092 14.3758C3.9319 14.5114 3.67511 14.3148 3.75397 14.0873L5.40334 9.32833C5.44032 9.22164 5.40119 9.10341 5.30786 9.03984L1.00662 6.11012C0.803244 5.9716 0.901286 5.6535 1.14736 5.6535H6.49902C6.60554 5.6535 6.70036 5.58601 6.73524 5.48537L8.40015 0.681559Z" fill="#FBB040"/>
</svg>
