<svg width="75" height="17" viewBox="0 0 75 17" fill="none" xmlns="http://www.w3.org/2000/svg">
<path d="M12.1751 0.686035H15.0595V10.0384C15.0595 14.9589 11.9838 16.686 7.52176 16.686C3.07564 16.686 0 14.9589 0 10.0384V1.06078C0 0.800088 0.127487 0.686035 0.382462 0.686035H3.26687V9.89174C3.26687 12.8408 4.54174 14.0628 7.52176 14.0628C10.5177 14.0628 11.7926 12.8408 11.7926 9.89174V1.06078C11.7926 0.800088 11.9201 0.686035 12.1751 0.686035ZM44.8278 3.24408V7.18705H52.1264C52.2539 7.18705 52.3017 7.25223 52.2539 7.38257L51.4571 9.40294C51.3774 9.58217 51.2659 9.66363 51.0269 9.66363H46.7401C45.3377 9.66363 44.8278 10.1036 44.8278 11.0649V13.851H54.7081C54.8355 13.851 54.8834 13.9162 54.8355 14.0465L54.0069 16.1484C53.9272 16.3276 53.8156 16.409 53.5766 16.409H42.7561C41.9274 16.409 41.6087 16.1158 41.6087 15.4803V1.77768C41.6087 1.0119 42.0231 0.686035 43.1067 0.686035H54.7081C54.8355 0.686035 54.8834 0.751208 54.8355 0.865261L54.0069 2.98339C53.9272 3.16261 53.8156 3.24408 53.5766 3.24408H44.8278ZM35.6646 12.0587C35.6646 15.2033 33.4973 16.409 30.4536 16.409H22.39C21.5454 16.409 21.2426 16.1158 21.2426 15.4803V1.77768C21.2426 1.0119 21.641 0.686035 22.7406 0.686035H29.2902C32.1587 0.686035 34.9316 1.19113 34.9316 4.67789C34.9316 6.17687 34.4057 7.44775 33.1467 8.11577C34.8838 8.58828 35.6646 10.185 35.6646 12.0587ZM24.4138 7.23593H29.5293C31.2185 7.23593 31.6966 6.56791 31.6966 5.19927C31.6966 3.83064 31.2185 3.17891 29.5293 3.17891H24.4138V7.23593ZM32.4296 11.7655C32.4296 10.3154 31.9356 9.59846 30.1189 9.59846H26.3421C24.9397 9.59846 24.4138 10.0384 24.4138 10.9997V13.9162H30.1189C31.9356 13.9162 32.4296 13.1993 32.4296 11.7655ZM74.8192 16.409H71.887C71.648 16.409 71.5523 16.3113 71.4567 16.1484L68.3492 10.4131H65.4967C64.0943 10.4131 63.5684 10.853 63.5684 11.8143V16.409H60.7637C60.5087 16.409 60.3813 16.2787 60.3813 16.0343V1.77768C60.3813 1.0119 60.7956 0.686035 61.8792 0.686035H68.4608C72.3013 0.686035 74.612 1.71251 74.612 5.52514C74.612 8.47422 73.2256 9.63105 71.5045 10.0873L74.9626 16.1321C75.0264 16.2298 75.0264 16.409 74.8192 16.409ZM71.377 5.59031C71.377 3.99357 70.9468 3.21149 68.9389 3.21149H63.5684V7.96913H68.9389C70.9468 7.96913 71.377 7.20335 71.377 5.59031Z" fill="#666666"/>
</svg>
