<svg width="27" height="27" viewBox="0 0 27 27" fill="none" xmlns="http://www.w3.org/2000/svg">
<path fill-rule="evenodd" clip-rule="evenodd" d="M11.3448 2C6.18382 2 2 6.18382 2 11.3448C2 16.5058 6.18382 20.6897 11.3448 20.6897C16.5058 20.6897 20.6897 16.5058 20.6897 11.3448C20.6897 6.18382 16.5058 2 11.3448 2ZM0 11.3448C0 5.07925 5.07925 0 11.3448 0C17.6104 0 22.6897 5.07925 22.6897 11.3448C22.6897 14.1176 21.6949 16.658 20.0429 18.6287L26.7071 25.2929C27.0976 25.6834 27.0976 26.3166 26.7071 26.7071C26.3166 27.0976 25.6834 27.0976 25.2929 26.7071L18.6287 20.0429C16.658 21.6949 14.1176 22.6897 11.3448 22.6897C5.07925 22.6897 0 17.6104 0 11.3448Z" fill="white"/>
</svg>
